<svg width="19" height="15" viewBox="0 0 19 15" xmlns="http://www.w3.org/2000/svg"><title>Shape</title><desc>Created with Sketch.</desc><path d="M18.621 1.781c-.528.766-1.166 1.418-1.914 1.957l.012.492c0 1.016-.15 2.029-.449 3.041-.299 1.012-.754 1.982-1.365 2.912-.61.93-1.337 1.752-2.18 2.467-.843.715-1.859 1.285-3.048 1.711-1.189.426-2.461.639-3.816.639-2.135 0-4.088-.566-5.86-1.699.276.031.583.047.922.047 1.772 0 3.352-.539 4.738-1.617-.827-.016-1.567-.268-2.221-.756-.654-.488-1.103-1.111-1.347-1.869.26.039.5.059.721.059.339 0 .673-.043 1.004-.129-.882-.18-1.613-.615-2.192-1.307-.579-.691-.868-1.494-.868-2.408v-.047c.536.297 1.111.457 1.725.48-.52-.344-.933-.793-1.241-1.348-.307-.555-.461-1.156-.461-1.805 0-.688.173-1.324.52-1.91.953 1.164 2.113 2.096 3.48 2.795 1.367.699 2.83 1.088 4.389 1.166-.063-.297-.095-.586-.095-.867 0-1.047.372-1.939 1.117-2.678.744-.738 1.644-1.107 2.7-1.107 1.103 0 2.032.398 2.788 1.195.859-.164 1.666-.469 2.422-.914-.291.898-.851 1.594-1.678 2.086.733-.078 1.465-.273 2.198-.586z" fill="#3FDA90"/></svg>