<svg width="20" height="20" viewBox="0 0 20 20" xmlns="http://www.w3.org/2000/svg"><title>Shape</title><desc>Created with Sketch.</desc><path d="M1.538 18.571h3.462v-3.214h-3.462v3.214zm4.231 0h3.846v-3.214h-3.846v3.214zm-4.231-3.929h3.462v-3.571h-3.462v3.571zm4.231 0h3.846v-3.571h-3.846v3.571zm-4.231-4.286h3.462v-3.214h-3.462v3.214zm8.846 8.214h3.846v-3.214h-3.846v3.214zm-4.615-8.214h3.846v-3.214h-3.846v3.214zm9.231 8.214h3.462v-3.214h-3.462v3.214zm-4.615-3.929h3.846v-3.571h-3.846v3.571zm-4.231-9.643v-3.214c0-.097-.038-.18-.114-.251-.076-.071-.166-.106-.27-.106h-.769c-.104 0-.194.035-.27.106-.076.071-.114.154-.114.251v3.214c0 .097.038.18.114.251.076.071.166.106.27.106h.769c.104 0 .194-.035.27-.106.076-.071.114-.154.114-.251zm8.846 9.643h3.462v-3.571h-3.462v3.571zm-4.615-4.286h3.846v-3.214h-3.846v3.214zm4.615 0h3.462v-3.214h-3.462v3.214zm.385-5.357v-3.214c0-.097-.038-.18-.114-.251-.076-.071-.166-.106-.27-.106h-.769c-.104 0-.194.035-.27.106-.076.071-.114.154-.114.251v3.214c0 .097.038.18.114.251.076.071.166.106.27.106h.769c.104 0 .194-.035.27-.106.076-.071.114-.154.114-.251zm4.615-.714v14.286c0 .387-.152.722-.457 1.004-.304.283-.665.424-1.082.424h-16.923c-.417 0-.777-.141-1.082-.424-.304-.283-.457-.618-.457-1.004v-14.286c0-.387.152-.722.457-1.004.304-.283.665-.424 1.082-.424h1.538v-1.071c0-.491.188-.911.565-1.261.377-.35.829-.525 1.358-.525h.769c.529 0 .982.175 1.358.525.377.35.565.77.565 1.261v1.071h4.615v-1.071c0-.491.188-.911.565-1.261.377-.35.829-.525 1.358-.525h.769c.529 0 .982.175 1.358.525.377.35.565.77.565 1.261v1.071h1.538c.417 0 .777.141 1.082.424.304.283.457.618.457 1.004z" fill="#3FDA90"/></svg>