<svg width="127" height="127" viewBox="0 0 127 127" xmlns="http://www.w3.org/2000/svg" xmlns:xlink="http://www.w3.org/1999/xlink"><title>Group 2</title><desc>Created with Sketch.</desc><defs><linearGradient x1="0%" y1="0%" x2="92.556%" y2="100%" id="c"><stop stop-color="#3FDA90" offset="0%"/><stop stop-color="#33D4A6" offset="100%"/></linearGradient><path d="M62.554 83.412h13.556c-.718-.988-1.077-1.616-1.526-2.065-5.835-6.195-9.067-13.377-8.888-21.816.09-4.04 0-8.08 0-12.12 0-1.077.18-2.334 0-3.411h-14.095c-.269 14.364-2.244 28.728 10.953 39.412zm35.471 0c0-7.182.539-13.915-.09-20.559-.718-7.721-4.399-14.185-10.683-18.853h-13.466c9.067 11.581 10.055 14.454 10.055 29.446v9.965h14.185zm-69.75-39.412c-.269 14.364-2.334 28.818 10.863 39.412h13.466c-1.077-1.347-1.706-2.334-2.514-3.142-4.579-5.476-7.272-11.85-7.721-18.853-.269-4.309-.09-8.708-.09-13.017 0-1.436.09-2.783-.09-4.309-4.758-.09-9.157-.09-13.915-.09z" id="b"/><filter x="-50%" y="-50%" width="200%" height="200%" filterUnits="objectBoundingBox" id="a"><feOffset in="SourceAlpha" result="shadowOffsetOuter1"/><feColorMatrix values="0 0 0 0 0 0 0 0 0 0 0 0 0 0 0 0 0 0 0.369140625 0" in="shadowOffsetOuter1"/></filter><linearGradient x1="0%" y1="50%" y2="50%" id="d"><stop stop-color="#33D4A6" offset="0%"/><stop stop-color="#3FDA90" offset="100%"/></linearGradient></defs><g fill="none"><g transform="translate(0 0)"><use fill="#000" filter="url(#a)" xlink:href="#b"/><use fill="url(#c)" xlink:href="#b"/></g><path d="M63.5 123.864c-33.338 0-60.364-27.026-60.364-60.364 0-33.338 27.026-60.364 60.364-60.364 33.338 0 60.364 27.026 60.364 60.364 0 33.338-27.026 60.364-60.364 60.364zm0 3.136c35.07 0 63.5-28.43 63.5-63.5s-28.43-63.5-63.5-63.5-63.5 28.43-63.5 63.5 28.43 63.5 63.5 63.5z" fill="url(#d)"/></g></svg>