<?xml version="1.0" standalone="no"?>
<!DOCTYPE svg PUBLIC "-//W3C//DTD SVG 20010904//EN"
 "http://www.w3.org/TR/2001/REC-SVG-20010904/DTD/svg10.dtd">
<svg version="1.0" xmlns="http://www.w3.org/2000/svg"
 width="16.000000pt" height="16.000000pt" viewBox="0 0 16.000000 16.000000"
 preserveAspectRatio="xMidYMid meet">
<metadata>
Created by potrace 1.11, written by Peter Selinger 2001-2013
</metadata>
<g transform="translate(0.000000,16.000000) scale(0.005333,-0.005333)"
fill="#000000" stroke="none">
<path d="M1305 2989 c-634 -87 -1140 -560 -1277 -1192 -32 -148 -32 -446 0
-594 130 -600 572 -1041 1179 -1175 142 -32 444 -32 586 0 620 137 1069 595
1183 1207 26 138 26 392 0 530 -114 609 -567 1073 -1178 1206 -109 23 -382 34
-493 18z m430 -85 c446 -70 853 -375 1049 -788 154 -322 181 -707 74 -1046
-161 -509 -594 -886 -1121 -974 -127 -22 -347 -22 -474 -1 -594 101 -1065 572
-1168 1169 -20 117 -20 355 1 477 35 210 133 436 264 611 323 430 836 636
1375 552z"/>
<path d="M665 1863 c-10 -131 0 -351 20 -443 26 -119 93 -246 170 -324 l64
-66 161 0 161 0 -20 28 c-11 15 -41 53 -66 86 -25 32 -61 90 -79 130 -62 128
-68 166 -73 439 l-5 247 -163 0 -163 0 -7 -97z"/>
<path d="M1216 1868 c-26 -369 29 -595 186 -764 l70 -74 159 0 c87 0 159 4
159 8 0 4 -23 35 -51 67 -73 86 -129 185 -157 279 -23 74 -26 101 -30 329 l-4
247 -163 0 -162 0 -7 -92z"/>
<path d="M1750 1954 c0 -3 15 -24 34 -47 59 -73 126 -184 151 -252 33 -87 45
-201 45 -432 l0 -193 171 0 171 0 -5 268 c-5 297 -10 324 -74 451 -25 49 -61
98 -105 143 l-67 68 -161 0 c-88 0 -160 -3 -160 -6z"/>
</g>
</svg>
